<?xml version="1.0" encoding="UTF-8" standalone="no"?>
<!-- Created with Inkscape (http://www.inkscape.org/) -->

<svg
   width="22.701941in"
   height="3.7313032in"
   viewBox="0 0 576.6293 94.775102"
   version="1.1"
   id="svg1"
   xml:space="preserve"
   sodipodi:docname="metranova_logo.svg"
   inkscape:version="1.3.2 (091e20e, 2023-11-25)"
   inkscape:export-filename="mn-bw.png"
   inkscape:export-xdpi="96"
   inkscape:export-ydpi="96"
   xmlns:inkscape="http://www.inkscape.org/namespaces/inkscape"
   xmlns:sodipodi="http://sodipodi.sourceforge.net/DTD/sodipodi-0.dtd"
   xmlns="http://www.w3.org/2000/svg"
   xmlns:svg="http://www.w3.org/2000/svg"><sodipodi:namedview
     id="namedview1"
     pagecolor="#ffffff"
     bordercolor="#000000"
     borderopacity="0.25"
     inkscape:showpageshadow="2"
     inkscape:pageopacity="0.0"
     inkscape:pagecheckerboard="0"
     inkscape:deskcolor="#d1d1d1"
     inkscape:document-units="mm"
     inkscape:zoom="0.49497475"
     inkscape:cx="1180.8683"
     inkscape:cy="414.16254"
     inkscape:window-width="1936"
     inkscape:window-height="945"
     inkscape:window-x="143"
     inkscape:window-y="142"
     inkscape:window-maximized="0"
     inkscape:current-layer="svg1"
     showguides="true"
     inkscape:export-bgcolor="#ffffffff"><sodipodi:guide
       position="481.70908,4.5642975"
       orientation="0,-1"
       id="guide4"
       inkscape:locked="false" /><sodipodi:guide
       position="368.71532,87.89671"
       orientation="0,-1"
       id="guide7"
       inkscape:locked="false" /></sodipodi:namedview><defs
     id="defs1"><rect
       x="228.70512"
       y="813.92114"
       width="1244.4249"
       height="400.23395"
       id="rect33-6-1-7-7-7" /><rect
       x="228.70512"
       y="813.92114"
       width="1244.4249"
       height="400.23395"
       id="rect7" /></defs><g
     inkscape:groupmode="layer"
     id="layer2"
     inkscape:label="Text"
     style="display:inline"
     transform="translate(-5.656913,-0.38323492)"><text
       xml:space="preserve"
       transform="matrix(0.87057039,-0.00100653,0.00100653,0.87057039,-193.35874,-719.00687)"
       id="text33-5-52-3-2-0"
       style="font-style:normal;font-variant:normal;font-weight:bold;font-stretch:normal;font-size:125.653px;font-family:'Trebuchet MS';-inkscape-font-specification:'Trebuchet MS Bold';white-space:pre;shape-inside:url(#rect33-6-1-7-7-7);display:inline;fill:#000000;fill-opacity:1;stroke:#000000;stroke-width:4.59469;stroke-dasharray:none;stroke-opacity:1"
       inkscape:export-filename="metranova logos/text33-5-52-3-2-0.png"
       inkscape:export-xdpi="96"
       inkscape:export-ydpi="96"
       inkscape:label="MetrAN"><tspan
         x="228.70508"
         y="927.93732"
         id="tspan6">Met<tspan
   dx="9.117588"
   style="letter-spacing:-9.11758px"
   id="tspan3">r</tspan><tspan
   dx="-9.1175842"
   style="letter-spacing:0px"
   id="tspan5">A</tspan>N</tspan></text><text
       xml:space="preserve"
       transform="matrix(0.87052636,0.00881433,-0.00881433,0.87052636,271.41381,-722.12824)"
       id="text7"
       style="font-style:normal;font-variant:normal;font-weight:bold;font-stretch:normal;font-size:125.653px;font-family:'Trebuchet MS';-inkscape-font-specification:'Trebuchet MS Bold';letter-spacing:-15.196px;white-space:pre;shape-inside:url(#rect7);display:inline;fill:#000000;fill-opacity:1;stroke:#000000;stroke-width:4.59469;stroke-dasharray:none;stroke-opacity:1"
       inkscape:export-filename="metranova logos/text33-5-52-3-2-0.png"
       inkscape:export-xdpi="96"
       inkscape:export-ydpi="96"
       inkscape:label="VA"><tspan
         x="228.70508"
         y="927.93732"
         id="tspan11"><tspan
           style="letter-spacing:-22.7939px;word-spacing:0px"
           id="tspan9">V</tspan><tspan
           dx="-7.5978994"
           id="tspan10">A</tspan></tspan></text></g><g
     inkscape:groupmode="layer"
     id="layer3"
     inkscape:label="Logo"
     style="display:inline"
     transform="translate(-5.656913,-0.38323492)"><g
       id="g56"
       transform="matrix(0.36123129,0,0,0.36123129,351.83072,-151.43079)"
       inkscape:export-filename="metranova logos/metranova_icon_light.png"
       inkscape:export-xdpi="96"
       inkscape:export-ydpi="96"
       inkscape:label="Filler BW-"
       style="display:none"><circle
         style="display:inline;fill:#fae765;fill-opacity:1;stroke:none;stroke-width:0.290946;stroke-dasharray:none;stroke-opacity:1"
         id="path56-2"
         cx="190.51881"
         cy="551.68262"
         r="130.21675"
         inkscape:label="Background"
         transform="translate(-1.7301936e-6)" /><path
         id="path2-7-5-48-4-9-0-6-1"
         style="display:inline;fill:#6089b3;fill-opacity:1;stroke:none;stroke-width:0.386461;stroke-opacity:1"
         d="m 190.65748,449.57595 a 102.24493,102.24493 0 0 0 -45.29146,10.7786 c 15.07913,11.8859 27.09318,26.8286 35.45029,43.5819 21.83139,-16.1421 48.77486,-25.4703 77.40854,-25.2227 l -7.6e-4,-7e-4 c 1.3358,0.012 2.68173,0.083 4.02463,0.1366 a 102.24493,102.24493 0 0 0 -71.59124,-29.2737 z m -58.99802,19.0158 a 102.24493,102.24493 0 0 0 -7.813,5.8498 c -0.1097,0.095 -0.216,0.1933 -0.32533,0.2883 a 102.24493,102.24493 0 0 0 -9.99516,9.9952 c -0.0732,0.084 -0.14973,0.1655 -0.22267,0.2498 a 102.24493,102.24493 0 0 0 -8.5097,11.3682 c -0.0925,0.143 -0.18382,0.2867 -0.27551,0.4302 a 102.24493,102.24493 0 0 0 -6.829495,12.5072 c -0.0272,0.059 -0.0516,0.1196 -0.0784,0.1789 a 102.24493,102.24493 0 0 0 -4.96513,13.3125 c -0.0435,0.1468 -0.0907,0.2924 -0.13365,0.4393 a 102.24493,102.24493 0 0 0 -0.75254,3.4608 c 16.539605,-6.6819 34.303815,-9.8743 52.167025,-9.3196 h 7.6e-4 c 3.24246,0.1008 6.48831,0.3254 9.73022,0.6733 h 0.0117 0.0117 c 3.27806,0.3626 6.50959,0.8721 9.70683,1.4741 1.87821,-2.0012 3.79743,-3.9618 5.79616,-5.8377 -8.24103,-17.7357 -21.04133,-33.356 -37.52376,-45.0718 z m 126.42575,24.7253 c -26.64166,-0.2438 -51.57288,8.8198 -71.36706,24.3901 0.43883,1.2158 0.83326,2.4477 1.22732,3.6797 0.0589,-3e-4 0.11699,0 0.17587,0 h 0.0117 0.009 c 43.00248,0.013 81.41252,25.1452 99.17794,63.1087 a 102.24493,102.24493 0 0 0 1.35111,-3.6216 c 0.0437,-0.1472 0.0906,-0.2934 0.13365,-0.4408 a 102.24493,102.24493 0 0 0 3.00489,-13.8152 c 0.0257,-0.176 0.0485,-0.3523 0.0732,-0.5284 a 102.24493,102.24493 0 0 0 1.01823,-14.2349 c 0,-0.01 7.6e-4,-0.02 7.6e-4,-0.03 0,-1.7394 -0.047,-3.4765 -0.13584,-5.2135 a 102.24493,102.24493 0 0 0 -0.10721,-1.4545 c -0.0809,-1.2407 -0.16663,-2.4815 -0.29286,-3.7182 a 102.24493,102.24493 0 0 0 -0.2355,-1.9104 c -0.13131,-1.0828 -0.26131,-2.1659 -0.42722,-3.2442 a 102.24493,102.24493 0 0 0 -0.36458,-2.0984 c -0.17607,-1.0038 -0.3512,-2.0075 -0.55705,-3.0056 a 102.24493,102.24493 0 0 0 -0.48005,-2.1406 c -0.2239,-0.9796 -0.4508,-1.9585 -0.70349,-2.9309 a 102.24493,102.24493 0 0 0 -0.59931,-2.1633 c -0.26786,-0.9446 -0.54138,-1.8873 -0.83632,-2.8238 a 102.24493,102.24493 0 0 0 -0.71556,-2.1663 c -0.31352,-0.9233 -0.63684,-1.8432 -0.97673,-2.7573 a 102.24493,102.24493 0 0 0 -0.83934,-2.1768 c -0.35153,-0.8829 -0.71542,-1.7608 -1.09145,-2.6336 a 102.24493,102.24493 0 0 0 -0.94276,-2.127 c -0.40195,-0.8776 -0.81954,-1.748 -1.24619,-2.6139 a 102.24493,102.24493 0 0 0 -1.04842,-2.0825 c -0.43439,-0.8335 -0.88794,-1.6562 -1.34507,-2.4773 a 102.24493,102.24493 0 0 0 -1.1858,-2.0946 c -0.47425,-0.806 -0.9697,-1.5988 -1.46584,-2.3912 a 102.24493,102.24493 0 0 0 -1.25449,-1.9814 c -0.16303,-0.2342 -0.32532,-0.4693 -0.48534,-0.7057 -1.93443,-0.3237 -3.86544,-0.6725 -5.81429,-0.896 -0.0102,0 -0.0177,0 -0.0279,0 -3.90749,-0.431 -7.78973,-0.6585 -11.63686,-0.6937 z m -118.92296,38.5827 c -1.43451,0.01 -2.86763,0.047 -4.29862,0.1103 -15.92243,0.7087 -31.49191,4.9587 -45.836455,12.1305 -0.0809,0.8231 -0.16061,1.6459 -0.24155,2.469 a 102.24493,102.24493 0 0 0 -0.32305,4.5107 c -0.0102,0.2549 -0.0397,0.5087 -0.0453,0.7639 a 102.24493,102.24493 0 0 0 3.84197,26.5103 c 11.191525,-20.4755 28.542865,-36.6361 49.221005,-46.444 -0.77256,-0.01 -1.54611,-0.056 -2.31801,-0.051 z"
         inkscape:label="Top" /><path
         id="path38-7-83"
         style="color:#000000;fill:#ffb380;stroke-width:1.46064;-inkscape-stroke:none"
         d="m 189.19543,535.99005 c -39.73541,0.095 -74.91622,24.9392 -88.65442,62.0316 0.0483,0.1129 0.0941,0.2269 0.14271,0.3397 2.41651,4.7258 5.18736,9.2622 8.30741,13.5563 3.1482,4.3334 6.6313,8.4139 10.41861,12.2015 3.78756,3.7873 7.86806,7.2704 12.20146,10.4186 4.33327,3.1485 8.90692,5.9526 13.67938,8.3844 4.77237,2.4316 9.72892,4.4837 14.82291,6.1389 5.09417,1.655 10.30926,2.9083 15.59961,3.7461 5.29033,0.8379 10.63958,1.2582 15.99589,1.2582 5.35627,0 10.70478,-0.4203 15.99512,-1.2582 5.29036,-0.8378 10.50545,-2.0911 15.59961,-3.7461 5.09396,-1.6552 10.05056,-3.7073 14.82291,-6.1389 4.77245,-2.4318 9.3461,-5.2359 13.67937,-8.3844 4.3334,-3.1482 8.41391,-6.6313 12.20147,-10.4186 3.77706,-3.777 7.24839,-7.8475 10.38992,-12.1675 1.97242,-2.7952 3.67575,-5.7631 5.35762,-8.7407 -12.17927,-39.7923 -48.71287,-67.2041 -90.55954,-67.2209 z"
         inkscape:label="Bottom" /><g
         inkscape:groupmode="layer"
         id="layer4"
         inkscape:label="Center Circle Color"
         style="display:inline"
         transform="matrix(2.7683095,0,0,2.7683095,-973.97631,419.20729)"><ellipse
           style="display:inline;fill:#cccccc;fill-opacity:1;stroke:none;stroke-width:0.15193;stroke-opacity:1"
           id="path2-7-8-8-27-2-0-4-5-12"
           cy="549.71692"
           cx="190.51546"
           rx="41.125423"
           ry="39.287239"
           transform="matrix(0.36123129,0,0,0.36123129,351.83072,-151.43079)"
           inkscape:label="Blue Circle Filler" /><path
           id="path3-8-2-1-8-7-4-9"
           style="display:inline;fill:#5aa8ff;fill-opacity:1;stroke:none;stroke-width:0.386461;stroke-opacity:1"
           d="m 190.65737,503.61975 a 48.201179,48.201179 0 0 0 -48.20126,48.2013 48.201179,48.201179 0 0 0 48.20126,48.2013 48.201179,48.201179 0 0 0 48.20126,-48.2013 48.201179,48.201179 0 0 0 -48.20126,-48.2013 z m 0,11.6852 a 36.516045,36.516045 0 0 1 36.51609,36.5161 36.516045,36.516045 0 0 1 -36.51609,36.5161 36.516045,36.516045 0 0 1 -36.51608,-36.5161 36.516045,36.516045 0 0 1 36.51608,-36.5161 z"
           transform="matrix(0.36123129,0,0,0.36123129,351.83072,-151.43079)"
           inkscape:label="Blue Circle" /></g></g><g
       inkscape:groupmode="layer"
       id="g7"
       inkscape:label="Center Circle BW+"
       style="display:inline"
       transform="translate(1.1092601e-6)"><ellipse
         style="display:none;fill:#ffffff;fill-opacity:1;stroke:none;stroke-width:0.15193;stroke-opacity:1"
         id="ellipse7"
         cy="549.71692"
         cx="190.51546"
         rx="41.125423"
         ry="39.287239"
         transform="matrix(0.36123129,0,0,0.36123129,351.83072,-151.43079)"
         inkscape:label="Circle Filler" /><path
         id="path7"
         style="display:inline;fill:#000000;fill-opacity:1;stroke:none;stroke-width:0.386461;stroke-opacity:1"
         d="m 190.65737,503.61975 a 48.201179,48.201179 0 0 0 -48.20126,48.2013 48.201179,48.201179 0 0 0 48.20126,48.2013 48.201179,48.201179 0 0 0 48.20126,-48.2013 48.201179,48.201179 0 0 0 -48.20126,-48.2013 z m 0,11.6852 a 36.516045,36.516045 0 0 1 36.51609,36.5161 36.516045,36.516045 0 0 1 -36.51609,36.5161 36.516045,36.516045 0 0 1 -36.51608,-36.5161 36.516045,36.516045 0 0 1 36.51608,-36.5161 z"
         transform="matrix(0.36123129,0,0,0.36123129,351.83072,-151.43079)"
         inkscape:label="Circle" /></g><path
       id="path2-4-2-27-2-7-3-4-8"
       style="display:inline;fill:#000000;fill-opacity:1;stroke:none;stroke-width:0.147506;stroke-opacity:1"
       d="M 420.56853,0.38323492 C 408.06416,0.4283115 396.08439,5.4139577 387.24009,14.253639 l -1.28088,1.280887 c -8.17918,8.745062 -12.74456,20.262358 -12.77824,32.236259 10e-6,26.17137 21.21619,47.387551 47.38756,47.387551 26.17138,0 47.38756,-21.216181 47.38756,-47.387551 0,-26.171369 -21.21618,-47.38755008 -47.38756,-47.38755008 z m 0,5.57496328 c 23.09243,-3.82e-5 41.81262,18.7201708 41.8126,41.8125868 -1.3e-4,23.092302 -18.72029,41.812359 -41.8126,41.812321 -23.09231,3.8e-5 -41.81246,-18.720019 -41.8126,-41.812321 0.0394,-10.41076 3.40377,-19.87495 10.44091,-27.547218 l 16.20139,16.874967 c -2.87096,4.382818 -4.54587,9.619725 -4.54587,15.250375 -10e-6,15.394957 12.48011,27.875123 27.87507,27.875085 15.39495,3.8e-5 27.87508,-12.480128 27.87506,-27.875085 2e-5,-15.394917 -12.48011,-27.875083 -27.87506,-27.875045 -7.72115,0 -14.7082,3.140137 -19.75622,8.211891 L 391.9643,17.301675 C 399.76196,9.6851329 409.66829,5.9724731 420.56853,5.9581982 Z m 8.1589,26.8782448 c 4.52608,0.0049 8.35215,1.025962 11.84249,3.907432 l -16.13398,5.368969 -2.00083,2.848723 a 3.3728802,3.3728802 0 0 0 -1.86658,-0.563821 3.3728802,3.3728802 0 0 0 -0.91902,0.129658 l -0.0461,-0.07146 -1.10111,-3.14861 -3.31655,-2.999945 c 3.5094,-3.385215 8.28056,-5.471031 13.54168,-5.470955 z m 14.60073,6.623902 c 3.48437,3.61201 4.88585,7.869941 4.91176,12.888564 -2e-5,10.776451 -8.73607,19.512468 -19.51249,19.512506 -10.77654,1.53e-4 -19.51276,-8.73594 -19.51278,-19.512506 10e-6,-3.242732 0.79567,-6.29806 2.1953,-8.98888 l 2.54965,2.655668 3.16619,0.968022 0.14721,0.110039 a 3.3728802,3.3728802 0 0 0 -0.0775,0.676722 3.3728802,3.3728802 0 0 0 3.37303,3.37304 3.3728802,3.3728802 0 0 0 3.3572,-3.156359 l 0.55515,-0.158474 3.14775,-0.0049 15.18903,-8.062386 z"
       inkscape:label="Clock" /></g></svg>
